<?xml version="1.0" encoding="UTF-8" standalone="no"?>
<!-- Created with Inkscape (http://www.inkscape.org/) -->

<svg
   xmlns:dc="http://purl.org/dc/elements/1.1/"
   xmlns:cc="http://creativecommons.org/ns#"
   xmlns:rdf="http://www.w3.org/1999/02/22-rdf-syntax-ns#"
   xmlns:svg="http://www.w3.org/2000/svg"
   xmlns="http://www.w3.org/2000/svg"
   xmlns:sodipodi="http://sodipodi.sourceforge.net/DTD/sodipodi-0.dtd"
   xmlns:inkscape="http://www.inkscape.org/namespaces/inkscape"
   width="9177.165"
   height="2232.2834"
   id="svg2"
   version="1.1"
   inkscape:version="0.48.5 r10040"
   sodipodi:docname="plotter_arrangiert.svg">
  <defs
     id="defs4" />
  <sodipodi:namedview
     id="base"
     pagecolor="#ffffff"
     bordercolor="#666666"
     borderopacity="1.0"
     inkscape:pageopacity="0.0"
     inkscape:pageshadow="2"
     inkscape:zoom="0.11"
     inkscape:cx="4488.5965"
     inkscape:cy="102.00204"
     inkscape:document-units="px"
     inkscape:current-layer="layer1"
     showgrid="false"
     units="cm"
     inkscape:window-width="1436"
     inkscape:window-height="855"
     inkscape:window-x="4"
     inkscape:window-y="0"
     inkscape:window-maximized="1" />
  <metadata
     id="metadata7">
    <rdf:RDF>
      <cc:Work
         rdf:about="">
        <dc:format>image/svg+xml</dc:format>
        <dc:type
           rdf:resource="http://purl.org/dc/dcmitype/StillImage" />
        <dc:title></dc:title>
      </cc:Work>
    </rdf:RDF>
  </metadata>
  <g
     inkscape:label="Ebene 1"
     inkscape:groupmode="layer"
     id="layer1"
     transform="translate(0,1179.9225)">
    <path
       style="fill:none;stroke:#ff0000;stroke-width:15;stroke-miterlimit:4;stroke-opacity:1;stroke-dasharray:none"
       d="m 7.5000001,-1134.2809 0,1063.000115 2231.6250999,0 c -76.7676,-161.016085 -119.75,-341.234885 -119.75,-531.499985 0,-190.265 42.9824,-370.4839 119.75,-531.50013 l -2231.6250999,0 z m 4465.2188999,0 c 76.7676,161.01623 119.75,341.23513 119.75,531.50013 0,190.2651 -42.9824,370.4839 -119.75,531.499985 l 2231.6251,0 0,-1063.000115 -2231.6251,0 z"
       id="rect2985"
       inkscape:connector-curvature="0" />
    <text
       xml:space="preserve"
       style="font-size:45.48593521px;font-style:normal;font-weight:normal;line-height:125%;letter-spacing:0px;word-spacing:0px;fill:none;stroke:#ff0000;stroke-width:15.63317871;stroke-miterlimit:4;stroke-opacity:1;stroke-dasharray:none;font-family:Sans"
       x="3357.8101"
       y="712.95612"
       id="text4042"
       sodipodi:linespacing="125%"><tspan
         sodipodi:role="line"
         x="3357.8101"
         y="712.95612"
         style="font-size:341.14450073px;font-style:normal;font-variant:normal;font-weight:normal;font-stretch:normal;text-align:center;text-anchor:middle;fill:none;stroke:#ff0000;stroke-width:15.63317871;stroke-miterlimit:4;stroke-opacity:1;stroke-dasharray:none;font-family:Politics Head;-inkscape-font-specification:Politics Head"
         id="tspan4048">HACKERSPACE</tspan></text>
    <text
       xml:space="preserve"
       style="font-size:182.17214966px;font-style:normal;font-weight:normal;line-height:125%;letter-spacing:0px;word-spacing:0px;fill:none;stroke:#ff0000;stroke-width:15.63317871;stroke-miterlimit:4;stroke-opacity:1;stroke-dasharray:none;font-family:Sans"
       x="2252.3669"
       y="428.98666"
       id="text4050"
       sodipodi:linespacing="125%"><tspan
         sodipodi:role="line"
         id="tspan4052"
         x="2252.3669"
         y="428.98666"
         style="font-size:655.81976318px;fill:none;stroke:#ff0000;stroke-width:15.63317871;stroke-miterlimit:4;stroke-opacity:1;stroke-dasharray:none;font-family:Politics Head;-inkscape-font-specification:Politics Head">NETZ39</tspan></text>
    <text
       sodipodi:linespacing="125%"
       id="text4059"
       y="984.23755"
       x="3347.5178"
       style="font-size:52.39083862px;font-style:normal;font-weight:normal;line-height:125%;letter-spacing:0px;word-spacing:0px;fill:none;stroke:#ff0000;stroke-width:15.63317871;stroke-miterlimit:4;stroke-opacity:1;stroke-dasharray:none;font-family:Sans"
       xml:space="preserve"><tspan
         id="tspan4061"
         style="font-size:392.93130493px;font-style:normal;font-variant:normal;font-weight:normal;font-stretch:normal;text-align:center;text-anchor:middle;fill:none;stroke:#ff0000;stroke-width:15.63317871;stroke-miterlimit:4;stroke-opacity:1;stroke-dasharray:none;font-family:Politics Head;-inkscape-font-specification:Politics Head"
         y="984.23755"
         x="3347.5178"
         sodipodi:role="line">Magdeburg</tspan></text>
    <path
       id="path4092"
       d="m 15,-35.855518 0,1062.999918 2231.6251,0 c -76.7676,-161.01601 -119.75,-341.23481 -119.75,-531.49991 0,-190.265 42.9824,-370.4839 119.75,-531.500008 l -2231.6251,0 z m 4465.2189,0 c 76.7676,161.016108 119.75,341.235008 119.75,531.500008 0,190.2651 -42.9824,370.4839 -119.75,531.49991 l 2231.6251,0 0,-1062.999918 -2231.6251,0 z"
       style="fill:none;stroke:#ff0000;stroke-width:15;stroke-miterlimit:4;stroke-opacity:1;stroke-dasharray:none"
       inkscape:connector-curvature="0" />
    <text
       sodipodi:linespacing="125%"
       id="text4094"
       y="-414.31662"
       x="3357.8101"
       style="font-size:45.48593521px;font-style:normal;font-weight:normal;line-height:125%;letter-spacing:0px;word-spacing:0px;fill:none;stroke:#ff0000;stroke-width:15.63317871;stroke-miterlimit:4;stroke-opacity:1;stroke-dasharray:none;font-family:Sans"
       xml:space="preserve"><tspan
         id="tspan4096"
         style="font-size:341.14450073px;font-style:normal;font-variant:normal;font-weight:normal;font-stretch:normal;text-align:center;text-anchor:middle;fill:none;stroke:#ff0000;stroke-width:15.63317871;stroke-miterlimit:4;stroke-opacity:1;stroke-dasharray:none;font-family:Politics Head;-inkscape-font-specification:Politics Head"
         y="-414.31662"
         x="3357.8101"
         sodipodi:role="line">HACKERSPACE</tspan></text>
    <text
       sodipodi:linespacing="125%"
       id="text4098"
       y="-698.28607"
       x="2252.3669"
       style="font-size:182.17214966px;font-style:normal;font-weight:normal;line-height:125%;letter-spacing:0px;word-spacing:0px;fill:none;stroke:#ff0000;stroke-width:15.63317871;stroke-miterlimit:4;stroke-opacity:1;stroke-dasharray:none;font-family:Sans"
       xml:space="preserve"><tspan
         style="font-size:655.81976318px;fill:none;stroke:#ff0000;stroke-width:15.63317871;stroke-miterlimit:4;stroke-opacity:1;stroke-dasharray:none;font-family:Politics Head;-inkscape-font-specification:Politics Head"
         y="-698.28607"
         x="2252.3669"
         id="tspan4100"
         sodipodi:role="line">NETZ39</tspan></text>
    <text
       xml:space="preserve"
       style="font-size:52.39083862px;font-style:normal;font-weight:normal;line-height:125%;letter-spacing:0px;word-spacing:0px;fill:none;stroke:#ff0000;stroke-width:15.63317871;stroke-miterlimit:4;stroke-opacity:1;stroke-dasharray:none;font-family:Sans"
       x="3347.5178"
       y="-143.03517"
       id="text4102"
       sodipodi:linespacing="125%"><tspan
         sodipodi:role="line"
         x="3347.5178"
         y="-143.03517"
         style="font-size:392.93130493px;font-style:normal;font-variant:normal;font-weight:normal;font-stretch:normal;text-align:center;text-anchor:middle;fill:none;stroke:#ff0000;stroke-width:15.63317871;stroke-miterlimit:4;stroke-opacity:1;stroke-dasharray:none;font-family:Politics Head;-inkscape-font-specification:Politics Head"
         id="tspan4104">Magdeburg</tspan></text>
    <g
       style="fill:none;stroke:#ff0000;stroke-width:1.79039955;stroke-miterlimit:4;stroke-opacity:1;stroke-dasharray:none"
       transform="matrix(8.3780175,0,0,8.3780186,6591.7226,-1369.3222)"
       id="g4106">
      <g
         style="fill:none;stroke:#ff0000;stroke-width:1.79039955;stroke-miterlimit:4;stroke-opacity:1;stroke-dasharray:none"
         transform="translate(-448.05262,-67.701334)"
         id="g4108">
        <path
           d="m 534.12054,161.88159 0,10.40612 47.25268,0 c -9.52806,9.54312 -19.06966,19.07261 -28.62694,28.58644 l 12.59261,0 c 20.11218,0 36.40116,16.32948 36.40116,36.44165 0,20.11218 -16.28898,36.40117 -36.40116,36.40117 -20.11217,0 -36.44165,-16.28899 -36.44165,-36.40117 l -10.40612,0 c 0,25.8585 20.98928,46.8073 46.84777,46.8073 25.85849,0 46.80728,-20.9488 46.80728,-46.8073 0,-21.99252 -15.15229,-40.48031 -35.59135,-45.51157 l 29.96314,-29.92264 z"
           id="path4110"
           style="color:#000000;fill:none;stroke:#ff0000;stroke-width:1.79039955;stroke-miterlimit:4;stroke-opacity:1;stroke-dasharray:none;marker:none;visibility:visible;display:inline;overflow:visible;enable-background:accumulate"
           inkscape:connector-curvature="0"
           sodipodi:nodetypes="ccccsssccssccc" />
        <g
           style="fill:none;stroke:#ff0000;stroke-width:1.79039955;stroke-miterlimit:4;stroke-opacity:1;stroke-dasharray:none"
           transform="matrix(-1,0,0,-1,1130.6373,475.18252)"
           id="g4112">
          <path
             d="m 565.33889,208.68886 c -15.80241,0 -28.62694,12.82454 -28.62694,28.62694 0,12.13086 7.56029,22.4873 18.22083,26.6429 l 0,-11.74231 c -4.72379,-3.28183 -7.81471,-8.71082 -7.81471,-14.90059 0,-10.05608 8.16474,-18.22082 18.22082,-18.22082 10.05608,0 18.18034,8.16474 18.18034,18.22082 0,6.17974 -3.07517,11.61703 -7.77422,14.90059 l 0,11.74231 c 10.64945,-4.1556 18.18033,-14.51204 18.18033,-26.6429 0,-15.8024 -12.78404,-28.62694 -28.58645,-28.62694 z"
             id="path4114"
             style="color:#000000;fill:none;stroke:#ff0000;stroke-width:1.79039955;stroke-miterlimit:4;stroke-opacity:1;stroke-dasharray:none;marker:none;visibility:visible;display:inline;overflow:visible;enable-background:accumulate"
             inkscape:connector-curvature="0" />
          <path
             d="m 565.33889,232.0925 c -2.87317,0 -5.2233,2.35013 -5.2233,5.2233 l 0,31.17786 10.40612,0 0,-31.17786 c 0,-2.87317 -2.30965,-5.2233 -5.18282,-5.2233 z"
             id="path4116"
             style="color:#000000;fill:none;stroke:#ff0000;stroke-width:1.79039955;stroke-miterlimit:4;stroke-opacity:1;stroke-dasharray:none;marker:none;visibility:visible;display:inline;overflow:visible;enable-background:accumulate"
             inkscape:connector-curvature="0" />
        </g>
        <path
           d="m 630.85289,149.49143 c -5.72232,0.0544 -10.36388,0.85328 -11.49937,1.53864 -2.27103,1.37086 -2.80747,4.65767 -2.10552,5.42576 0.70195,0.76784 11.43046,7.65845 16.11531,9.92023 12.61445,6.09045 -1.28767,29.39594 -12.14722,25.22572 -7.69621,-2.95537 -16.42692,-11.75721 -17.8969,-11.82329 -1.46996,-0.0648 -3.36351,0.9263 -3.84662,3.4822 -0.48303,2.55591 3.00841,14.89689 11.7828,24.49689 10.52926,11.52022 26.92634,-1.20851 26.92634,9.31286 l 0,48.87231 a 13.017768,13.017768 0 0 0 26.03553,0 l 0,-62.4367 0,-14.57666 c 0,-5.46709 6.70282,-27.38877 -15.46745,-36.56312 -5.37441,-2.22388 -12.17459,-2.92922 -17.8969,-2.87484 z"
           id="path4118"
           style="fill:none;stroke:#ff0000;stroke-width:1.79039955;stroke-miterlimit:4;stroke-opacity:1;stroke-dasharray:none"
           inkscape:connector-curvature="0" />
      </g>
      <path
         d="m 150,23.121296 c -70.070867,0 -126.878717,56.8078 -126.878717,126.878714 0,70.0708 56.80785,126.87869 126.878717,126.87869 70.07082,0 126.87872,-56.80789 126.87872,-126.87869 C 276.87872,79.929096 220.07082,23.121296 150,23.121296 z m 0,17.3855 c 60.46032,0 109.45402,49.0329 109.45402,109.493214 0,60.4603 -48.9937,109.45399 -109.45402,109.45399 -60.472228,0.3888 -108.645337,-55.93299 -109.493167,-109.45399 0,-60.460314 49.03291,-109.493214 109.493227,-109.493214 z"
         id="path4120"
         style="color:#000000;fill:none;stroke:#ff0000;stroke-width:1.79039955;stroke-miterlimit:4;stroke-opacity:1;stroke-dasharray:none;marker:none;visibility:visible;display:inline;overflow:visible;enable-background:accumulate"
         inkscape:connector-curvature="0" />
      <path
         inkscape:connector-curvature="0"
         style="color:#000000;fill:none;stroke:#ff0000;stroke-width:1.79039955;stroke-miterlimit:4;stroke-opacity:1;stroke-dasharray:none;marker:none;visibility:visible;display:inline;overflow:visible;enable-background:accumulate"
         id="path4122"
         d="m 150,23.121296 c -70.070867,0 -126.878717,56.8078 -126.878717,126.878714 0,70.0708 56.80785,126.87869 126.878717,126.87869 70.07082,0 126.87872,-56.80789 126.87872,-126.87869 C 276.87872,79.929096 220.07082,23.121296 150,23.121296 z m 0,17.3855 c 60.46032,0 109.45402,49.0329 109.45402,109.493214 0,60.4603 -48.9937,109.45399 -109.45402,109.45399 -60.472228,0.3888 -108.645337,-55.93299 -109.493167,-109.45399 0,-60.460314 49.03291,-109.493214 109.493227,-109.493214 z" />
      <path
         d="m 150,23.121296 c -70.070867,0 -126.878717,56.8078 -126.878717,126.878714 0,70.0708 56.80785,126.87869 126.878717,126.87869 70.07082,0 126.87872,-56.80789 126.87872,-126.87869 C 276.87872,79.929096 220.07082,23.121296 150,23.121296 z m 0,17.3855 c 60.46032,0 109.45402,49.0329 109.45402,109.493214 0,60.4603 -48.9937,109.45399 -109.45402,109.45399 -60.472228,0.3888 -108.645337,-55.93299 -109.493167,-109.45399 0,-60.460314 49.03291,-109.493214 109.493227,-109.493214 z"
         id="path4124"
         style="color:#000000;fill:none;stroke:#ff0000;stroke-width:1.79039955;stroke-miterlimit:4;stroke-opacity:1;stroke-dasharray:none;marker:none;visibility:visible;display:inline;overflow:visible;enable-background:accumulate"
         inkscape:connector-curvature="0" />
    </g>
    <g
       id="g4134"
       transform="matrix(8.3780175,0,0,8.3780186,8764.4499,-1369.3222)"
       style="fill:none;stroke:#ff0000;stroke-width:1.79039955;stroke-miterlimit:4;stroke-opacity:1;stroke-dasharray:none">
      <g
         id="g4136"
         transform="translate(-448.05262,-67.701334)"
         style="fill:none;stroke:#ff0000;stroke-width:1.79039955;stroke-miterlimit:4;stroke-opacity:1;stroke-dasharray:none">
        <path
           sodipodi:nodetypes="ccccsssccssccc"
           inkscape:connector-curvature="0"
           style="color:#000000;fill:none;stroke:#ff0000;stroke-width:1.79039955;stroke-miterlimit:4;stroke-opacity:1;stroke-dasharray:none;marker:none;visibility:visible;display:inline;overflow:visible;enable-background:accumulate"
           id="path4138"
           d="m 534.12054,161.88159 0,10.40612 47.25268,0 c -9.52806,9.54312 -19.06966,19.07261 -28.62694,28.58644 l 12.59261,0 c 20.11218,0 36.40116,16.32948 36.40116,36.44165 0,20.11218 -16.28898,36.40117 -36.40116,36.40117 -20.11217,0 -36.44165,-16.28899 -36.44165,-36.40117 l -10.40612,0 c 0,25.8585 20.98928,46.8073 46.84777,46.8073 25.85849,0 46.80728,-20.9488 46.80728,-46.8073 0,-21.99252 -15.15229,-40.48031 -35.59135,-45.51157 l 29.96314,-29.92264 z" />
        <g
           id="g4140"
           transform="matrix(-1,0,0,-1,1130.6373,475.18252)"
           style="fill:none;stroke:#ff0000;stroke-width:1.79039955;stroke-miterlimit:4;stroke-opacity:1;stroke-dasharray:none">
          <path
             inkscape:connector-curvature="0"
             style="color:#000000;fill:none;stroke:#ff0000;stroke-width:1.79039955;stroke-miterlimit:4;stroke-opacity:1;stroke-dasharray:none;marker:none;visibility:visible;display:inline;overflow:visible;enable-background:accumulate"
             id="path4142"
             d="m 565.33889,208.68886 c -15.80241,0 -28.62694,12.82454 -28.62694,28.62694 0,12.13086 7.56029,22.4873 18.22083,26.6429 l 0,-11.74231 c -4.72379,-3.28183 -7.81471,-8.71082 -7.81471,-14.90059 0,-10.05608 8.16474,-18.22082 18.22082,-18.22082 10.05608,0 18.18034,8.16474 18.18034,18.22082 0,6.17974 -3.07517,11.61703 -7.77422,14.90059 l 0,11.74231 c 10.64945,-4.1556 18.18033,-14.51204 18.18033,-26.6429 0,-15.8024 -12.78404,-28.62694 -28.58645,-28.62694 z" />
          <path
             inkscape:connector-curvature="0"
             style="color:#000000;fill:none;stroke:#ff0000;stroke-width:1.79039955;stroke-miterlimit:4;stroke-opacity:1;stroke-dasharray:none;marker:none;visibility:visible;display:inline;overflow:visible;enable-background:accumulate"
             id="path4144"
             d="m 565.33889,232.0925 c -2.87317,0 -5.2233,2.35013 -5.2233,5.2233 l 0,31.17786 10.40612,0 0,-31.17786 c 0,-2.87317 -2.30965,-5.2233 -5.18282,-5.2233 z" />
        </g>
        <path
           inkscape:connector-curvature="0"
           style="fill:none;stroke:#ff0000;stroke-width:1.79039955;stroke-miterlimit:4;stroke-opacity:1;stroke-dasharray:none"
           id="path4146"
           d="m 630.85289,149.49143 c -5.72232,0.0544 -10.36388,0.85328 -11.49937,1.53864 -2.27103,1.37086 -2.80747,4.65767 -2.10552,5.42576 0.70195,0.76784 11.43046,7.65845 16.11531,9.92023 12.61445,6.09045 -1.28767,29.39594 -12.14722,25.22572 -7.69621,-2.95537 -16.42692,-11.75721 -17.8969,-11.82329 -1.46996,-0.0648 -3.36351,0.9263 -3.84662,3.4822 -0.48303,2.55591 3.00841,14.89689 11.7828,24.49689 10.52926,11.52022 26.92634,-1.20851 26.92634,9.31286 l 0,48.87231 a 13.017768,13.017768 0 0 0 26.03553,0 l 0,-62.4367 0,-14.57666 c 0,-5.46709 6.70282,-27.38877 -15.46745,-36.56312 -5.37441,-2.22388 -12.17459,-2.92922 -17.8969,-2.87484 z" />
      </g>
      <path
         inkscape:connector-curvature="0"
         style="color:#000000;fill:none;stroke:#ff0000;stroke-width:1.79039955;stroke-miterlimit:4;stroke-opacity:1;stroke-dasharray:none;marker:none;visibility:visible;display:inline;overflow:visible;enable-background:accumulate"
         id="path4148"
         d="m 150,23.121296 c -70.070867,0 -126.878717,56.8078 -126.878717,126.878714 0,70.0708 56.80785,126.87869 126.878717,126.87869 70.07082,0 126.87872,-56.80789 126.87872,-126.87869 C 276.87872,79.929096 220.07082,23.121296 150,23.121296 z m 0,17.3855 c 60.46032,0 109.45402,49.0329 109.45402,109.493214 0,60.4603 -48.9937,109.45399 -109.45402,109.45399 -60.472228,0.3888 -108.645337,-55.93299 -109.493167,-109.45399 0,-60.460314 49.03291,-109.493214 109.493227,-109.493214 z" />
      <path
         d="m 150,23.121296 c -70.070867,0 -126.878717,56.8078 -126.878717,126.878714 0,70.0708 56.80785,126.87869 126.878717,126.87869 70.07082,0 126.87872,-56.80789 126.87872,-126.87869 C 276.87872,79.929096 220.07082,23.121296 150,23.121296 z m 0,17.3855 c 60.46032,0 109.45402,49.0329 109.45402,109.493214 0,60.4603 -48.9937,109.45399 -109.45402,109.45399 -60.472228,0.3888 -108.645337,-55.93299 -109.493167,-109.45399 0,-60.460314 49.03291,-109.493214 109.493227,-109.493214 z"
         id="path4150"
         style="color:#000000;fill:none;stroke:#ff0000;stroke-width:1.79039955;stroke-miterlimit:4;stroke-opacity:1;stroke-dasharray:none;marker:none;visibility:visible;display:inline;overflow:visible;enable-background:accumulate"
         inkscape:connector-curvature="0" />
      <path
         inkscape:connector-curvature="0"
         style="color:#000000;fill:none;stroke:#ff0000;stroke-width:1.79039955;stroke-miterlimit:4;stroke-opacity:1;stroke-dasharray:none;marker:none;visibility:visible;display:inline;overflow:visible;enable-background:accumulate"
         id="path4152"
         d="m 150,23.121296 c -70.070867,0 -126.878717,56.8078 -126.878717,126.878714 0,70.0708 56.80785,126.87869 126.878717,126.87869 70.07082,0 126.87872,-56.80789 126.87872,-126.87869 C 276.87872,79.929096 220.07082,23.121296 150,23.121296 z m 0,17.3855 c 60.46032,0 109.45402,49.0329 109.45402,109.493214 0,60.4603 -48.9937,109.45399 -109.45402,109.45399 -60.472228,0.3888 -108.645337,-55.93299 -109.493167,-109.45399 0,-60.460314 49.03291,-109.493214 109.493227,-109.493214 z" />
    </g>
  </g>
</svg>
