<?xml version="1.0" encoding="UTF-8" standalone="no"?>
<!-- Created with Inkscape (http://www.inkscape.org/) -->

<svg
   xmlns:dc="http://purl.org/dc/elements/1.1/"
   xmlns:cc="http://creativecommons.org/ns#"
   xmlns:rdf="http://www.w3.org/1999/02/22-rdf-syntax-ns#"
   xmlns:svg="http://www.w3.org/2000/svg"
   xmlns="http://www.w3.org/2000/svg"
   xmlns:sodipodi="http://sodipodi.sourceforge.net/DTD/sodipodi-0.dtd"
   xmlns:inkscape="http://www.inkscape.org/namespaces/inkscape"
   width="2480.3149"
   height="3791.3384"
   id="svg4141"
   version="1.1"
   inkscape:version="0.48.5 r10040"
   sodipodi:docname="final_all.svg">
  <defs
     id="defs4143" />
  <sodipodi:namedview
     id="base"
     pagecolor="#ffffff"
     bordercolor="#666666"
     borderopacity="1.0"
     inkscape:pageopacity="0.0"
     inkscape:pageshadow="2"
     inkscape:zoom="0.34"
     inkscape:cx="1076.1029"
     inkscape:cy="1956.472"
     inkscape:document-units="mm"
     inkscape:current-layer="layer1"
     showgrid="false"
     units="cm"
     inkscape:window-width="1436"
     inkscape:window-height="855"
     inkscape:window-x="4"
     inkscape:window-y="0"
     inkscape:window-maximized="1" />
  <metadata
     id="metadata4146">
    <rdf:RDF>
      <cc:Work
         rdf:about="">
        <dc:format>image/svg+xml</dc:format>
        <dc:type
           rdf:resource="http://purl.org/dc/dcmitype/StillImage" />
        <dc:title></dc:title>
      </cc:Work>
    </rdf:RDF>
  </metadata>
  <g
     inkscape:label="Ebene 1"
     inkscape:groupmode="layer"
     id="layer1"
     transform="translate(0,2738.9776)">
    <path
       style="font-size:medium;font-style:normal;font-variant:normal;font-weight:normal;font-stretch:normal;text-indent:0;text-align:start;text-decoration:none;line-height:normal;letter-spacing:normal;word-spacing:normal;text-transform:none;direction:ltr;block-progression:tb;writing-mode:lr-tb;text-anchor:start;baseline-shift:baseline;color:#000000;fill:#ff0000;fill-opacity:1;stroke:none;stroke-width:0.5;marker:none;visibility:visible;display:inline;overflow:visible;enable-background:accumulate;font-family:Sans;-inkscape-font-specification:Sans"
       d="m -0.25,-1374.8045 0,0.2499 0,1062.49236 0,0.24988 0.249949861248,0 2479.815050138752,0 0.25,0 0,-0.24988 0,-1062.49236 0,-0.2499 -0.25,0 -2479.815050138752,0 -0.249949861248,0 z m 0.49989972,0.4997 2479.31520028,0 0,1061.99268 -2479.31520028,0 0,-1061.99268 z"
       id="rect4215"
       inkscape:connector-curvature="0" />
    <text
       xml:space="preserve"
       style="font-size:26.59111786px;font-style:normal;font-weight:normal;line-height:125%;letter-spacing:0px;word-spacing:0px;fill:none;stroke:#ff0000;stroke-width:0.5;stroke-miterlimit:4;stroke-opacity:1;stroke-dasharray:none;font-family:Sans"
       x="1643.319"
       y="-718.57104"
       id="text4042"
       sodipodi:linespacing="125%"><tspan
         sodipodi:role="line"
         x="1643.319"
         y="-718.57104"
         style="font-size:199.43336487px;font-style:normal;font-variant:normal;font-weight:normal;font-stretch:normal;text-align:center;text-anchor:middle;fill:none;stroke:#ff0000;stroke-width:0.5;stroke-miterlimit:4;stroke-opacity:1;stroke-dasharray:none;font-family:Politics Head;-inkscape-font-specification:Politics Head"
         id="tspan4048">HACKERSPACE</tspan></text>
    <text
       xml:space="preserve"
       style="font-size:106.4980011px;font-style:normal;font-weight:normal;line-height:125%;letter-spacing:0px;word-spacing:0px;fill:none;stroke:#ff0000;stroke-width:0.5;stroke-miterlimit:4;stroke-opacity:1;stroke-dasharray:none;font-family:Sans"
       x="997.07587"
       y="-884.5799"
       id="text4050"
       sodipodi:linespacing="125%"><tspan
         sodipodi:role="line"
         id="tspan4052"
         x="997.07587"
         y="-884.5799"
         style="font-size:383.39279175px;fill:none;stroke:#ff0000;stroke-width:0.5;stroke-miterlimit:4;stroke-opacity:1;stroke-dasharray:none;font-family:Politics Head;-inkscape-font-specification:Politics Head">NETZ39</tspan></text>
    <text
       sodipodi:linespacing="125%"
       id="text4059"
       y="-559.97961"
       x="1637.3022"
       style="font-size:30.62772751px;font-style:normal;font-weight:normal;line-height:125%;letter-spacing:0px;word-spacing:0px;fill:none;stroke:#ff0000;stroke-width:0.5;stroke-miterlimit:4;stroke-opacity:1;stroke-dasharray:none;font-family:Sans"
       xml:space="preserve"><tspan
         id="tspan4061"
         style="font-size:229.70799255px;font-style:normal;font-variant:normal;font-weight:normal;font-stretch:normal;text-align:center;text-anchor:middle;fill:none;stroke:#ff0000;stroke-width:0.5;stroke-miterlimit:4;stroke-opacity:1;stroke-dasharray:none;font-family:Politics Head;-inkscape-font-specification:Politics Head"
         y="-559.97961"
         x="1637.3022"
         sodipodi:role="line">Magdeburg</tspan></text>
    <g
       id="g3972"
       transform="matrix(2.8987801,0,0,2.8987805,153.55982,-1278.1255)"
       style="fill:none;stroke:#ff0000;stroke-width:0.17248634;stroke-miterlimit:4;stroke-opacity:1;stroke-dasharray:none">
      <g
         id="g4413"
         transform="translate(-448.05262,-67.701334)"
         style="fill:none;stroke:#ff0000;stroke-width:0.17248634;stroke-miterlimit:4;stroke-opacity:1;stroke-dasharray:none">
        <path
           sodipodi:nodetypes="ccccsssccssccc"
           inkscape:connector-curvature="0"
           style="color:#000000;fill:none;stroke:#ff0000;stroke-width:0.17248634;stroke-miterlimit:4;stroke-opacity:1;stroke-dasharray:none;marker:none;visibility:visible;display:inline;overflow:visible;enable-background:accumulate"
           id="path4996-4-0-4-8-9-7-2-6-0-9-9-2"
           d="m 534.12054,161.88159 0,10.40612 47.25268,0 c -9.52806,9.54312 -19.06966,19.07261 -28.62694,28.58644 l 12.59261,0 c 20.11218,0 36.40116,16.32948 36.40116,36.44165 0,20.11218 -16.28898,36.40117 -36.40116,36.40117 -20.11217,0 -36.44165,-16.28899 -36.44165,-36.40117 l -10.40612,0 c 0,25.8585 20.98928,46.8073 46.84777,46.8073 25.85849,0 46.80728,-20.9488 46.80728,-46.8073 0,-21.99252 -15.15229,-40.48031 -35.59135,-45.51157 l 29.96314,-29.92264 z" />
        <g
           id="g4409"
           transform="matrix(-1,0,0,-1,1130.6373,475.18252)"
           style="fill:none;stroke:#ff0000;stroke-width:0.17248634;stroke-miterlimit:4;stroke-opacity:1;stroke-dasharray:none">
          <path
             inkscape:connector-curvature="0"
             style="color:#000000;fill:none;stroke:#ff0000;stroke-width:0.17248634;stroke-miterlimit:4;stroke-opacity:1;stroke-dasharray:none;marker:none;visibility:visible;display:inline;overflow:visible;enable-background:accumulate"
             id="path4996-4-0-4-2-1-9-8-5-8-9"
             d="m 565.33889,208.68886 c -15.80241,0 -28.62694,12.82454 -28.62694,28.62694 0,12.13086 7.56029,22.4873 18.22083,26.6429 l 0,-11.74231 c -4.72379,-3.28183 -7.81471,-8.71082 -7.81471,-14.90059 0,-10.05608 8.16474,-18.22082 18.22082,-18.22082 10.05608,0 18.18034,8.16474 18.18034,18.22082 0,6.17974 -3.07517,11.61703 -7.77422,14.90059 l 0,11.74231 c 10.64945,-4.1556 18.18033,-14.51204 18.18033,-26.6429 0,-15.8024 -12.78404,-28.62694 -28.58645,-28.62694 z" />
          <path
             inkscape:connector-curvature="0"
             style="color:#000000;fill:none;stroke:#ff0000;stroke-width:0.17248634;stroke-miterlimit:4;stroke-opacity:1;stroke-dasharray:none;marker:none;visibility:visible;display:inline;overflow:visible;enable-background:accumulate"
             id="rect5023-1-6-7-7-5-2-9-1-8-8"
             d="m 565.33889,232.0925 c -2.87317,0 -5.2233,2.35013 -5.2233,5.2233 l 0,31.17786 10.40612,0 0,-31.17786 c 0,-2.87317 -2.30965,-5.2233 -5.18282,-5.2233 z" />
        </g>
        <path
           inkscape:connector-curvature="0"
           style="fill:none;stroke:#ff0000;stroke-width:0.17248634;stroke-miterlimit:4;stroke-opacity:1;stroke-dasharray:none"
           id="path5018-1-3-2-1-4-7-5-6"
           d="m 630.85289,149.49143 c -5.72232,0.0544 -10.36388,0.85328 -11.49937,1.53864 -2.27103,1.37086 -2.80747,4.65767 -2.10552,5.42576 0.70195,0.76784 11.43046,7.65845 16.11531,9.92023 12.61445,6.09045 -1.28767,29.39594 -12.14722,25.22572 -7.69621,-2.95537 -16.42692,-11.75721 -17.8969,-11.82329 -1.46996,-0.0648 -3.36351,0.9263 -3.84662,3.4822 -0.48303,2.55591 3.00841,14.89689 11.7828,24.49689 10.52926,11.52022 26.92634,-1.20851 26.92634,9.31286 l 0,48.87231 a 13.017768,13.017768 0 0 0 26.03553,0 l 0,-62.4367 0,-14.57666 c 0,-5.46709 6.70282,-27.38877 -15.46745,-36.56312 -5.37441,-2.22388 -12.17459,-2.92922 -17.8969,-2.87484 z" />
      </g>
      <path
         inkscape:connector-curvature="0"
         style="color:#000000;fill:none;stroke:#ff0000;stroke-width:0.17248634;stroke-miterlimit:4;stroke-opacity:1;stroke-dasharray:none;marker:none;visibility:visible;display:inline;overflow:visible;enable-background:accumulate"
         id="path7438-70-0-9-0-2"
         d="m 150,23.121296 c -70.070867,0 -126.878717,56.8078 -126.878717,126.878714 0,70.0708 56.80785,126.87869 126.878717,126.87869 70.07082,0 126.87872,-56.80789 126.87872,-126.87869 C 276.87872,79.929096 220.07082,23.121296 150,23.121296 z m 0,17.3855 c 60.46032,0 109.45402,49.0329 109.45402,109.493214 0,60.4603 -48.9937,109.45399 -109.45402,109.45399 -60.472228,0.3888 -108.645337,-55.93299 -109.493167,-109.45399 0,-60.460314 49.03291,-109.493214 109.493227,-109.493214 z" />
    </g>
  </g>
</svg>
